<mxfile host="app.diagrams.net" modified="2023-08-13T17:23:50.083Z" agent="Mozilla/5.0 (Windows NT 10.0; Win64; x64) AppleWebKit/537.36 (KHTML, like Gecko) Chrome/115.0.0.0 Safari/537.36" etag="qrhyXttmvzt4cmb1Wc0T" version="21.6.7" type="github">
  <diagram name="Page-1" id="ad52d381-51e7-2e0d-a935-2d0ddd2fd229">
    <mxGraphModel dx="1750" dy="3608" grid="1" gridSize="10" guides="1" tooltips="1" connect="1" arrows="1" fold="1" page="1" pageScale="1" pageWidth="1100" pageHeight="850" background="none" math="0" shadow="0">
      <root>
        <mxCell id="0" />
        <mxCell id="1" parent="0" />
        <mxCell id="5BiHEe_unOmntPOv5Vft-13" value="Company" style="swimlane;fontStyle=1;align=center;verticalAlign=top;childLayout=stackLayout;horizontal=1;startSize=26;horizontalStack=0;resizeParent=1;resizeParentMax=0;resizeLast=0;collapsible=1;marginBottom=0;whiteSpace=wrap;html=1;fontSize=16;" parent="1" vertex="1">
          <mxGeometry x="990" y="-1860" width="260" height="268" as="geometry" />
        </mxCell>
        <mxCell id="5BiHEe_unOmntPOv5Vft-18" value="-name: String" style="text;strokeColor=none;fillColor=none;align=left;verticalAlign=top;spacingLeft=4;spacingRight=4;overflow=hidden;rotatable=0;points=[[0,0.5],[1,0.5]];portConstraint=eastwest;whiteSpace=wrap;html=1;fontSize=16;" parent="5BiHEe_unOmntPOv5Vft-13" vertex="1">
          <mxGeometry y="26" width="260" height="26" as="geometry" />
        </mxCell>
        <mxCell id="5BiHEe_unOmntPOv5Vft-14" value="-address: String" style="text;strokeColor=none;fillColor=none;align=left;verticalAlign=top;spacingLeft=4;spacingRight=4;overflow=hidden;rotatable=0;points=[[0,0.5],[1,0.5]];portConstraint=eastwest;whiteSpace=wrap;html=1;fontSize=16;" parent="5BiHEe_unOmntPOv5Vft-13" vertex="1">
          <mxGeometry y="52" width="260" height="26" as="geometry" />
        </mxCell>
        <mxCell id="5BiHEe_unOmntPOv5Vft-17" value="-name: String" style="text;strokeColor=none;fillColor=none;align=left;verticalAlign=top;spacingLeft=4;spacingRight=4;overflow=hidden;rotatable=0;points=[[0,0.5],[1,0.5]];portConstraint=eastwest;whiteSpace=wrap;html=1;fontSize=16;" parent="5BiHEe_unOmntPOv5Vft-13" vertex="1">
          <mxGeometry y="78" width="260" height="26" as="geometry" />
        </mxCell>
        <mxCell id="5BiHEe_unOmntPOv5Vft-45" value="-taxNumber:&amp;nbsp;String" style="text;strokeColor=none;fillColor=none;align=left;verticalAlign=top;spacingLeft=4;spacingRight=4;overflow=hidden;rotatable=0;points=[[0,0.5],[1,0.5]];portConstraint=eastwest;whiteSpace=wrap;html=1;fontSize=16;" parent="5BiHEe_unOmntPOv5Vft-13" vertex="1">
          <mxGeometry y="104" width="260" height="26" as="geometry" />
        </mxCell>
        <mxCell id="5BiHEe_unOmntPOv5Vft-44" value="-phoneNumber: String" style="text;strokeColor=none;fillColor=none;align=left;verticalAlign=top;spacingLeft=4;spacingRight=4;overflow=hidden;rotatable=0;points=[[0,0.5],[1,0.5]];portConstraint=eastwest;whiteSpace=wrap;html=1;fontSize=16;" parent="5BiHEe_unOmntPOv5Vft-13" vertex="1">
          <mxGeometry y="130" width="260" height="26" as="geometry" />
        </mxCell>
        <mxCell id="5BiHEe_unOmntPOv5Vft-46" value="-departments: List&amp;lt;Department&amp;gt;" style="text;strokeColor=none;fillColor=none;align=left;verticalAlign=top;spacingLeft=4;spacingRight=4;overflow=hidden;rotatable=0;points=[[0,0.5],[1,0.5]];portConstraint=eastwest;whiteSpace=wrap;html=1;fontSize=16;" parent="5BiHEe_unOmntPOv5Vft-13" vertex="1">
          <mxGeometry y="156" width="260" height="26" as="geometry" />
        </mxCell>
        <mxCell id="5BiHEe_unOmntPOv5Vft-47" value="-employees: List&amp;lt;Employee&amp;gt;" style="text;strokeColor=none;fillColor=none;align=left;verticalAlign=top;spacingLeft=4;spacingRight=4;overflow=hidden;rotatable=0;points=[[0,0.5],[1,0.5]];portConstraint=eastwest;whiteSpace=wrap;html=1;fontSize=16;" parent="5BiHEe_unOmntPOv5Vft-13" vertex="1">
          <mxGeometry y="182" width="260" height="26" as="geometry" />
        </mxCell>
        <mxCell id="5BiHEe_unOmntPOv5Vft-152" value="-projects: List&amp;lt;Project&amp;gt;" style="text;strokeColor=none;fillColor=none;align=left;verticalAlign=top;spacingLeft=4;spacingRight=4;overflow=hidden;rotatable=0;points=[[0,0.5],[1,0.5]];portConstraint=eastwest;whiteSpace=wrap;html=1;fontSize=16;" parent="5BiHEe_unOmntPOv5Vft-13" vertex="1">
          <mxGeometry y="208" width="260" height="26" as="geometry" />
        </mxCell>
        <mxCell id="5BiHEe_unOmntPOv5Vft-15" value="" style="line;strokeWidth=1;fillColor=none;align=left;verticalAlign=middle;spacingTop=-1;spacingLeft=3;spacingRight=3;rotatable=0;labelPosition=right;points=[];portConstraint=eastwest;strokeColor=inherit;fontSize=16;" parent="5BiHEe_unOmntPOv5Vft-13" vertex="1">
          <mxGeometry y="234" width="260" height="8" as="geometry" />
        </mxCell>
        <mxCell id="5BiHEe_unOmntPOv5Vft-16" value="+ getInformation()" style="text;strokeColor=none;fillColor=none;align=left;verticalAlign=top;spacingLeft=4;spacingRight=4;overflow=hidden;rotatable=0;points=[[0,0.5],[1,0.5]];portConstraint=eastwest;whiteSpace=wrap;html=1;fontSize=16;" parent="5BiHEe_unOmntPOv5Vft-13" vertex="1">
          <mxGeometry y="242" width="260" height="26" as="geometry" />
        </mxCell>
        <mxCell id="5BiHEe_unOmntPOv5Vft-20" value="Account" style="swimlane;fontStyle=1;align=center;verticalAlign=top;childLayout=stackLayout;horizontal=1;startSize=26;horizontalStack=0;resizeParent=1;resizeParentMax=0;resizeLast=0;collapsible=1;marginBottom=0;whiteSpace=wrap;html=1;fontSize=16;" parent="1" vertex="1">
          <mxGeometry x="1560" y="-1620" width="180" height="164" as="geometry" />
        </mxCell>
        <mxCell id="5BiHEe_unOmntPOv5Vft-21" value="-id: int" style="text;strokeColor=none;fillColor=none;align=left;verticalAlign=top;spacingLeft=4;spacingRight=4;overflow=hidden;rotatable=0;points=[[0,0.5],[1,0.5]];portConstraint=eastwest;whiteSpace=wrap;html=1;fontSize=16;" parent="5BiHEe_unOmntPOv5Vft-20" vertex="1">
          <mxGeometry y="26" width="180" height="26" as="geometry" />
        </mxCell>
        <mxCell id="5BiHEe_unOmntPOv5Vft-22" value="-username: String" style="text;strokeColor=none;fillColor=none;align=left;verticalAlign=top;spacingLeft=4;spacingRight=4;overflow=hidden;rotatable=0;points=[[0,0.5],[1,0.5]];portConstraint=eastwest;whiteSpace=wrap;html=1;fontSize=16;" parent="5BiHEe_unOmntPOv5Vft-20" vertex="1">
          <mxGeometry y="52" width="180" height="26" as="geometry" />
        </mxCell>
        <mxCell id="5BiHEe_unOmntPOv5Vft-26" value="-password: String" style="text;strokeColor=none;fillColor=none;align=left;verticalAlign=top;spacingLeft=4;spacingRight=4;overflow=hidden;rotatable=0;points=[[0,0.5],[1,0.5]];portConstraint=eastwest;whiteSpace=wrap;html=1;fontSize=16;" parent="5BiHEe_unOmntPOv5Vft-20" vertex="1">
          <mxGeometry y="78" width="180" height="26" as="geometry" />
        </mxCell>
        <mxCell id="5BiHEe_unOmntPOv5Vft-69" value="-role: Enum" style="text;strokeColor=none;fillColor=none;align=left;verticalAlign=top;spacingLeft=4;spacingRight=4;overflow=hidden;rotatable=0;points=[[0,0.5],[1,0.5]];portConstraint=eastwest;whiteSpace=wrap;html=1;fontSize=16;" parent="5BiHEe_unOmntPOv5Vft-20" vertex="1">
          <mxGeometry y="104" width="180" height="26" as="geometry" />
        </mxCell>
        <mxCell id="5BiHEe_unOmntPOv5Vft-23" value="" style="line;strokeWidth=1;fillColor=none;align=left;verticalAlign=middle;spacingTop=-1;spacingLeft=3;spacingRight=3;rotatable=0;labelPosition=right;points=[];portConstraint=eastwest;strokeColor=inherit;fontSize=16;" parent="5BiHEe_unOmntPOv5Vft-20" vertex="1">
          <mxGeometry y="130" width="180" height="8" as="geometry" />
        </mxCell>
        <mxCell id="5BiHEe_unOmntPOv5Vft-24" value="+ changePassword()" style="text;strokeColor=none;fillColor=none;align=left;verticalAlign=top;spacingLeft=4;spacingRight=4;overflow=hidden;rotatable=0;points=[[0,0.5],[1,0.5]];portConstraint=eastwest;whiteSpace=wrap;html=1;fontSize=16;" parent="5BiHEe_unOmntPOv5Vft-20" vertex="1">
          <mxGeometry y="138" width="180" height="26" as="geometry" />
        </mxCell>
        <mxCell id="5BiHEe_unOmntPOv5Vft-27" value="Employee" style="swimlane;fontStyle=1;align=center;verticalAlign=top;childLayout=stackLayout;horizontal=1;startSize=26;horizontalStack=0;resizeParent=1;resizeParentMax=0;resizeLast=0;collapsible=1;marginBottom=0;whiteSpace=wrap;html=1;fontSize=16;" parent="1" vertex="1">
          <mxGeometry x="1510" y="-1310" width="280" height="424" as="geometry">
            <mxRectangle x="510" y="110" width="120" height="30" as="alternateBounds" />
          </mxGeometry>
        </mxCell>
        <mxCell id="5BiHEe_unOmntPOv5Vft-28" value="-id: int" style="text;strokeColor=none;fillColor=none;align=left;verticalAlign=top;spacingLeft=4;spacingRight=4;overflow=hidden;rotatable=0;points=[[0,0.5],[1,0.5]];portConstraint=eastwest;whiteSpace=wrap;html=1;fontSize=16;" parent="5BiHEe_unOmntPOv5Vft-27" vertex="1">
          <mxGeometry y="26" width="280" height="26" as="geometry" />
        </mxCell>
        <mxCell id="5BiHEe_unOmntPOv5Vft-29" value="-firstName: String" style="text;strokeColor=none;fillColor=none;align=left;verticalAlign=top;spacingLeft=4;spacingRight=4;overflow=hidden;rotatable=0;points=[[0,0.5],[1,0.5]];portConstraint=eastwest;whiteSpace=wrap;html=1;fontSize=16;" parent="5BiHEe_unOmntPOv5Vft-27" vertex="1">
          <mxGeometry y="52" width="280" height="26" as="geometry" />
        </mxCell>
        <mxCell id="5BiHEe_unOmntPOv5Vft-34" value="-lastName: String" style="text;strokeColor=none;fillColor=none;align=left;verticalAlign=top;spacingLeft=4;spacingRight=4;overflow=hidden;rotatable=0;points=[[0,0.5],[1,0.5]];portConstraint=eastwest;whiteSpace=wrap;html=1;fontSize=16;" parent="5BiHEe_unOmntPOv5Vft-27" vertex="1">
          <mxGeometry y="78" width="280" height="26" as="geometry" />
        </mxCell>
        <mxCell id="5BiHEe_unOmntPOv5Vft-43" value="-gender: Enum" style="text;strokeColor=none;fillColor=none;align=left;verticalAlign=top;spacingLeft=4;spacingRight=4;overflow=hidden;rotatable=0;points=[[0,0.5],[1,0.5]];portConstraint=eastwest;whiteSpace=wrap;html=1;fontSize=16;" parent="5BiHEe_unOmntPOv5Vft-27" vertex="1">
          <mxGeometry y="104" width="280" height="26" as="geometry" />
        </mxCell>
        <mxCell id="5BiHEe_unOmntPOv5Vft-36" value="-phoneNumber: String" style="text;strokeColor=none;fillColor=none;align=left;verticalAlign=top;spacingLeft=4;spacingRight=4;overflow=hidden;rotatable=0;points=[[0,0.5],[1,0.5]];portConstraint=eastwest;whiteSpace=wrap;html=1;fontSize=16;" parent="5BiHEe_unOmntPOv5Vft-27" vertex="1">
          <mxGeometry y="130" width="280" height="26" as="geometry" />
        </mxCell>
        <mxCell id="5BiHEe_unOmntPOv5Vft-30" value="-email: String" style="text;strokeColor=none;fillColor=none;align=left;verticalAlign=top;spacingLeft=4;spacingRight=4;overflow=hidden;rotatable=0;points=[[0,0.5],[1,0.5]];portConstraint=eastwest;whiteSpace=wrap;html=1;fontSize=16;" parent="5BiHEe_unOmntPOv5Vft-27" vertex="1">
          <mxGeometry y="156" width="280" height="26" as="geometry" />
        </mxCell>
        <mxCell id="5BiHEe_unOmntPOv5Vft-38" value="-position: Position" style="text;strokeColor=none;fillColor=none;align=left;verticalAlign=top;spacingLeft=4;spacingRight=4;overflow=hidden;rotatable=0;points=[[0,0.5],[1,0.5]];portConstraint=eastwest;whiteSpace=wrap;html=1;fontSize=16;" parent="5BiHEe_unOmntPOv5Vft-27" vertex="1">
          <mxGeometry y="182" width="280" height="26" as="geometry" />
        </mxCell>
        <mxCell id="5BiHEe_unOmntPOv5Vft-37" value="-dateOfBirth: Date" style="text;strokeColor=none;fillColor=none;align=left;verticalAlign=top;spacingLeft=4;spacingRight=4;overflow=hidden;rotatable=0;points=[[0,0.5],[1,0.5]];portConstraint=eastwest;whiteSpace=wrap;html=1;fontSize=16;" parent="5BiHEe_unOmntPOv5Vft-27" vertex="1">
          <mxGeometry y="208" width="280" height="26" as="geometry" />
        </mxCell>
        <mxCell id="5BiHEe_unOmntPOv5Vft-39" value="-department: Department" style="text;strokeColor=none;fillColor=none;align=left;verticalAlign=top;spacingLeft=4;spacingRight=4;overflow=hidden;rotatable=0;points=[[0,0.5],[1,0.5]];portConstraint=eastwest;whiteSpace=wrap;html=1;fontSize=16;" parent="5BiHEe_unOmntPOv5Vft-27" vertex="1">
          <mxGeometry y="234" width="280" height="26" as="geometry" />
        </mxCell>
        <mxCell id="5BiHEe_unOmntPOv5Vft-40" value="-salary: String" style="text;strokeColor=none;fillColor=none;align=left;verticalAlign=top;spacingLeft=4;spacingRight=4;overflow=hidden;rotatable=0;points=[[0,0.5],[1,0.5]];portConstraint=eastwest;whiteSpace=wrap;html=1;fontSize=16;" parent="5BiHEe_unOmntPOv5Vft-27" vertex="1">
          <mxGeometry y="260" width="280" height="26" as="geometry" />
        </mxCell>
        <mxCell id="5BiHEe_unOmntPOv5Vft-41" value="-startDate: Date" style="text;strokeColor=none;fillColor=none;align=left;verticalAlign=top;spacingLeft=4;spacingRight=4;overflow=hidden;rotatable=0;points=[[0,0.5],[1,0.5]];portConstraint=eastwest;whiteSpace=wrap;html=1;fontSize=16;" parent="5BiHEe_unOmntPOv5Vft-27" vertex="1">
          <mxGeometry y="286" width="280" height="26" as="geometry" />
        </mxCell>
        <mxCell id="5BiHEe_unOmntPOv5Vft-42" value="-endDate: Date" style="text;strokeColor=none;fillColor=none;align=left;verticalAlign=top;spacingLeft=4;spacingRight=4;overflow=hidden;rotatable=0;points=[[0,0.5],[1,0.5]];portConstraint=eastwest;whiteSpace=wrap;html=1;fontSize=16;" parent="5BiHEe_unOmntPOv5Vft-27" vertex="1">
          <mxGeometry y="312" width="280" height="26" as="geometry" />
        </mxCell>
        <mxCell id="5BiHEe_unOmntPOv5Vft-31" value="" style="line;strokeWidth=1;fillColor=none;align=left;verticalAlign=middle;spacingTop=-1;spacingLeft=3;spacingRight=3;rotatable=0;labelPosition=right;points=[];portConstraint=eastwest;strokeColor=inherit;fontSize=16;" parent="5BiHEe_unOmntPOv5Vft-27" vertex="1">
          <mxGeometry y="338" width="280" height="8" as="geometry" />
        </mxCell>
        <mxCell id="5BiHEe_unOmntPOv5Vft-32" value="+ updateInformation()" style="text;strokeColor=none;fillColor=none;align=left;verticalAlign=top;spacingLeft=4;spacingRight=4;overflow=hidden;rotatable=0;points=[[0,0.5],[1,0.5]];portConstraint=eastwest;whiteSpace=wrap;html=1;fontSize=16;" parent="5BiHEe_unOmntPOv5Vft-27" vertex="1">
          <mxGeometry y="346" width="280" height="26" as="geometry" />
        </mxCell>
        <mxCell id="5BiHEe_unOmntPOv5Vft-148" value="+ requestLeave()" style="text;strokeColor=none;fillColor=none;align=left;verticalAlign=top;spacingLeft=4;spacingRight=4;overflow=hidden;rotatable=0;points=[[0,0.5],[1,0.5]];portConstraint=eastwest;whiteSpace=wrap;html=1;fontSize=16;" parent="5BiHEe_unOmntPOv5Vft-27" vertex="1">
          <mxGeometry y="372" width="280" height="26" as="geometry" />
        </mxCell>
        <mxCell id="5BiHEe_unOmntPOv5Vft-157" value="+ viewTask()" style="text;strokeColor=none;fillColor=none;align=left;verticalAlign=top;spacingLeft=4;spacingRight=4;overflow=hidden;rotatable=0;points=[[0,0.5],[1,0.5]];portConstraint=eastwest;whiteSpace=wrap;html=1;fontSize=16;" parent="5BiHEe_unOmntPOv5Vft-27" vertex="1">
          <mxGeometry y="398" width="280" height="26" as="geometry" />
        </mxCell>
        <mxCell id="5BiHEe_unOmntPOv5Vft-58" value="Department" style="swimlane;fontStyle=1;align=center;verticalAlign=top;childLayout=stackLayout;horizontal=1;startSize=26;horizontalStack=0;resizeParent=1;resizeParentMax=0;resizeLast=0;collapsible=1;marginBottom=0;whiteSpace=wrap;html=1;fontSize=16;" parent="1" vertex="1">
          <mxGeometry x="925" y="-1310" width="250" height="268" as="geometry" />
        </mxCell>
        <mxCell id="5BiHEe_unOmntPOv5Vft-68" value="-id: int" style="text;strokeColor=none;fillColor=none;align=left;verticalAlign=top;spacingLeft=4;spacingRight=4;overflow=hidden;rotatable=0;points=[[0,0.5],[1,0.5]];portConstraint=eastwest;whiteSpace=wrap;html=1;fontSize=16;" parent="5BiHEe_unOmntPOv5Vft-58" vertex="1">
          <mxGeometry y="26" width="250" height="26" as="geometry" />
        </mxCell>
        <mxCell id="5BiHEe_unOmntPOv5Vft-59" value="-name: String" style="text;strokeColor=none;fillColor=none;align=left;verticalAlign=top;spacingLeft=4;spacingRight=4;overflow=hidden;rotatable=0;points=[[0,0.5],[1,0.5]];portConstraint=eastwest;whiteSpace=wrap;html=1;fontSize=16;" parent="5BiHEe_unOmntPOv5Vft-58" vertex="1">
          <mxGeometry y="52" width="250" height="26" as="geometry" />
        </mxCell>
        <mxCell id="5BiHEe_unOmntPOv5Vft-60" value="-manager: Employee" style="text;strokeColor=none;fillColor=none;align=left;verticalAlign=top;spacingLeft=4;spacingRight=4;overflow=hidden;rotatable=0;points=[[0,0.5],[1,0.5]];portConstraint=eastwest;whiteSpace=wrap;html=1;fontSize=16;" parent="5BiHEe_unOmntPOv5Vft-58" vertex="1">
          <mxGeometry y="78" width="250" height="26" as="geometry" />
        </mxCell>
        <mxCell id="5BiHEe_unOmntPOv5Vft-61" value="-employees: List&amp;lt;Employee&amp;gt;" style="text;strokeColor=none;fillColor=none;align=left;verticalAlign=top;spacingLeft=4;spacingRight=4;overflow=hidden;rotatable=0;points=[[0,0.5],[1,0.5]];portConstraint=eastwest;whiteSpace=wrap;html=1;fontSize=16;" parent="5BiHEe_unOmntPOv5Vft-58" vertex="1">
          <mxGeometry y="104" width="250" height="26" as="geometry" />
        </mxCell>
        <mxCell id="5BiHEe_unOmntPOv5Vft-64" value="-description: String" style="text;strokeColor=none;fillColor=none;align=left;verticalAlign=top;spacingLeft=4;spacingRight=4;overflow=hidden;rotatable=0;points=[[0,0.5],[1,0.5]];portConstraint=eastwest;whiteSpace=wrap;html=1;fontSize=16;" parent="5BiHEe_unOmntPOv5Vft-58" vertex="1">
          <mxGeometry y="130" width="250" height="26" as="geometry" />
        </mxCell>
        <mxCell id="5BiHEe_unOmntPOv5Vft-66" value="" style="line;strokeWidth=1;fillColor=none;align=left;verticalAlign=middle;spacingTop=-1;spacingLeft=3;spacingRight=3;rotatable=0;labelPosition=right;points=[];portConstraint=eastwest;strokeColor=inherit;fontSize=16;" parent="5BiHEe_unOmntPOv5Vft-58" vertex="1">
          <mxGeometry y="156" width="250" height="8" as="geometry" />
        </mxCell>
        <mxCell id="5BiHEe_unOmntPOv5Vft-156" value="+&amp;nbsp;assignManager()" style="text;strokeColor=none;fillColor=none;align=left;verticalAlign=top;spacingLeft=4;spacingRight=4;overflow=hidden;rotatable=0;points=[[0,0.5],[1,0.5]];portConstraint=eastwest;whiteSpace=wrap;html=1;fontSize=16;" parent="5BiHEe_unOmntPOv5Vft-58" vertex="1">
          <mxGeometry y="164" width="250" height="26" as="geometry" />
        </mxCell>
        <mxCell id="5BiHEe_unOmntPOv5Vft-67" value="+ addEmployee()" style="text;strokeColor=none;fillColor=none;align=left;verticalAlign=top;spacingLeft=4;spacingRight=4;overflow=hidden;rotatable=0;points=[[0,0.5],[1,0.5]];portConstraint=eastwest;whiteSpace=wrap;html=1;fontSize=16;" parent="5BiHEe_unOmntPOv5Vft-58" vertex="1">
          <mxGeometry y="190" width="250" height="26" as="geometry" />
        </mxCell>
        <mxCell id="5BiHEe_unOmntPOv5Vft-150" value="+ removeEmployee()" style="text;strokeColor=none;fillColor=none;align=left;verticalAlign=top;spacingLeft=4;spacingRight=4;overflow=hidden;rotatable=0;points=[[0,0.5],[1,0.5]];portConstraint=eastwest;whiteSpace=wrap;html=1;fontSize=16;" parent="5BiHEe_unOmntPOv5Vft-58" vertex="1">
          <mxGeometry y="216" width="250" height="26" as="geometry" />
        </mxCell>
        <mxCell id="5BiHEe_unOmntPOv5Vft-151" value="+ getEmployee()" style="text;strokeColor=none;fillColor=none;align=left;verticalAlign=top;spacingLeft=4;spacingRight=4;overflow=hidden;rotatable=0;points=[[0,0.5],[1,0.5]];portConstraint=eastwest;whiteSpace=wrap;html=1;fontSize=16;" parent="5BiHEe_unOmntPOv5Vft-58" vertex="1">
          <mxGeometry y="242" width="250" height="26" as="geometry" />
        </mxCell>
        <mxCell id="5BiHEe_unOmntPOv5Vft-87" value="Project" style="swimlane;fontStyle=1;align=center;verticalAlign=top;childLayout=stackLayout;horizontal=1;startSize=26;horizontalStack=0;resizeParent=1;resizeParentMax=0;resizeLast=0;collapsible=1;marginBottom=0;whiteSpace=wrap;html=1;fontSize=16;" parent="1" vertex="1">
          <mxGeometry x="925" y="-849" width="260" height="424" as="geometry" />
        </mxCell>
        <mxCell id="5BiHEe_unOmntPOv5Vft-88" value="-id: int" style="text;strokeColor=none;fillColor=none;align=left;verticalAlign=top;spacingLeft=4;spacingRight=4;overflow=hidden;rotatable=0;points=[[0,0.5],[1,0.5]];portConstraint=eastwest;whiteSpace=wrap;html=1;fontSize=16;" parent="5BiHEe_unOmntPOv5Vft-87" vertex="1">
          <mxGeometry y="26" width="260" height="26" as="geometry" />
        </mxCell>
        <mxCell id="5BiHEe_unOmntPOv5Vft-89" value="-name: String" style="text;strokeColor=none;fillColor=none;align=left;verticalAlign=top;spacingLeft=4;spacingRight=4;overflow=hidden;rotatable=0;points=[[0,0.5],[1,0.5]];portConstraint=eastwest;whiteSpace=wrap;html=1;fontSize=16;" parent="5BiHEe_unOmntPOv5Vft-87" vertex="1">
          <mxGeometry y="52" width="260" height="26" as="geometry" />
        </mxCell>
        <mxCell id="5BiHEe_unOmntPOv5Vft-90" value="-manager: Employee" style="text;strokeColor=none;fillColor=none;align=left;verticalAlign=top;spacingLeft=4;spacingRight=4;overflow=hidden;rotatable=0;points=[[0,0.5],[1,0.5]];portConstraint=eastwest;whiteSpace=wrap;html=1;fontSize=16;" parent="5BiHEe_unOmntPOv5Vft-87" vertex="1">
          <mxGeometry y="78" width="260" height="26" as="geometry" />
        </mxCell>
        <mxCell id="5BiHEe_unOmntPOv5Vft-91" value="-teamMembers: List&amp;lt;Employee&amp;gt;" style="text;strokeColor=none;fillColor=none;align=left;verticalAlign=top;spacingLeft=4;spacingRight=4;overflow=hidden;rotatable=0;points=[[0,0.5],[1,0.5]];portConstraint=eastwest;whiteSpace=wrap;html=1;fontSize=16;" parent="5BiHEe_unOmntPOv5Vft-87" vertex="1">
          <mxGeometry y="104" width="260" height="26" as="geometry" />
        </mxCell>
        <mxCell id="5BiHEe_unOmntPOv5Vft-110" value="-tasks: Set&amp;lt;Task&amp;gt;" style="text;strokeColor=none;fillColor=none;align=left;verticalAlign=top;spacingLeft=4;spacingRight=4;overflow=hidden;rotatable=0;points=[[0,0.5],[1,0.5]];portConstraint=eastwest;whiteSpace=wrap;html=1;fontSize=16;" parent="5BiHEe_unOmntPOv5Vft-87" vertex="1">
          <mxGeometry y="130" width="260" height="26" as="geometry" />
        </mxCell>
        <mxCell id="5BiHEe_unOmntPOv5Vft-92" value="-description: String" style="text;strokeColor=none;fillColor=none;align=left;verticalAlign=top;spacingLeft=4;spacingRight=4;overflow=hidden;rotatable=0;points=[[0,0.5],[1,0.5]];portConstraint=eastwest;whiteSpace=wrap;html=1;fontSize=16;" parent="5BiHEe_unOmntPOv5Vft-87" vertex="1">
          <mxGeometry y="156" width="260" height="26" as="geometry" />
        </mxCell>
        <mxCell id="5BiHEe_unOmntPOv5Vft-112" value="-status: String" style="text;strokeColor=none;fillColor=none;align=left;verticalAlign=top;spacingLeft=4;spacingRight=4;overflow=hidden;rotatable=0;points=[[0,0.5],[1,0.5]];portConstraint=eastwest;whiteSpace=wrap;html=1;fontSize=16;" parent="5BiHEe_unOmntPOv5Vft-87" vertex="1">
          <mxGeometry y="182" width="260" height="26" as="geometry" />
        </mxCell>
        <mxCell id="5BiHEe_unOmntPOv5Vft-98" value="-endDate: Date" style="text;strokeColor=none;fillColor=none;align=left;verticalAlign=top;spacingLeft=4;spacingRight=4;overflow=hidden;rotatable=0;points=[[0,0.5],[1,0.5]];portConstraint=eastwest;whiteSpace=wrap;html=1;fontSize=16;" parent="5BiHEe_unOmntPOv5Vft-87" vertex="1">
          <mxGeometry y="208" width="260" height="26" as="geometry" />
        </mxCell>
        <mxCell id="5BiHEe_unOmntPOv5Vft-97" value="-startDate: Date" style="text;strokeColor=none;fillColor=none;align=left;verticalAlign=top;spacingLeft=4;spacingRight=4;overflow=hidden;rotatable=0;points=[[0,0.5],[1,0.5]];portConstraint=eastwest;whiteSpace=wrap;html=1;fontSize=16;" parent="5BiHEe_unOmntPOv5Vft-87" vertex="1">
          <mxGeometry y="234" width="260" height="26" as="geometry" />
        </mxCell>
        <mxCell id="5BiHEe_unOmntPOv5Vft-93" value="" style="line;strokeWidth=1;fillColor=none;align=left;verticalAlign=middle;spacingTop=-1;spacingLeft=3;spacingRight=3;rotatable=0;labelPosition=right;points=[];portConstraint=eastwest;strokeColor=inherit;fontSize=16;" parent="5BiHEe_unOmntPOv5Vft-87" vertex="1">
          <mxGeometry y="260" width="260" height="8" as="geometry" />
        </mxCell>
        <mxCell id="5BiHEe_unOmntPOv5Vft-163" value="+&amp;nbsp;assignManager()" style="text;strokeColor=none;fillColor=none;align=left;verticalAlign=top;spacingLeft=4;spacingRight=4;overflow=hidden;rotatable=0;points=[[0,0.5],[1,0.5]];portConstraint=eastwest;whiteSpace=wrap;html=1;fontSize=16;" parent="5BiHEe_unOmntPOv5Vft-87" vertex="1">
          <mxGeometry y="268" width="260" height="26" as="geometry" />
        </mxCell>
        <mxCell id="5BiHEe_unOmntPOv5Vft-153" value="+ addNewTask()" style="text;strokeColor=none;fillColor=none;align=left;verticalAlign=top;spacingLeft=4;spacingRight=4;overflow=hidden;rotatable=0;points=[[0,0.5],[1,0.5]];portConstraint=eastwest;whiteSpace=wrap;html=1;fontSize=16;" parent="5BiHEe_unOmntPOv5Vft-87" vertex="1">
          <mxGeometry y="294" width="260" height="26" as="geometry" />
        </mxCell>
        <mxCell id="5BiHEe_unOmntPOv5Vft-154" value="+ addNewMember()" style="text;strokeColor=none;fillColor=none;align=left;verticalAlign=top;spacingLeft=4;spacingRight=4;overflow=hidden;rotatable=0;points=[[0,0.5],[1,0.5]];portConstraint=eastwest;whiteSpace=wrap;html=1;fontSize=16;" parent="5BiHEe_unOmntPOv5Vft-87" vertex="1">
          <mxGeometry y="320" width="260" height="26" as="geometry" />
        </mxCell>
        <mxCell id="5BiHEe_unOmntPOv5Vft-155" value="+ removeMember()" style="text;strokeColor=none;fillColor=none;align=left;verticalAlign=top;spacingLeft=4;spacingRight=4;overflow=hidden;rotatable=0;points=[[0,0.5],[1,0.5]];portConstraint=eastwest;whiteSpace=wrap;html=1;fontSize=16;" parent="5BiHEe_unOmntPOv5Vft-87" vertex="1">
          <mxGeometry y="346" width="260" height="26" as="geometry" />
        </mxCell>
        <mxCell id="5BiHEe_unOmntPOv5Vft-168" value="+ viewTasks()" style="text;strokeColor=none;fillColor=none;align=left;verticalAlign=top;spacingLeft=4;spacingRight=4;overflow=hidden;rotatable=0;points=[[0,0.5],[1,0.5]];portConstraint=eastwest;whiteSpace=wrap;html=1;fontSize=16;" parent="5BiHEe_unOmntPOv5Vft-87" vertex="1">
          <mxGeometry y="372" width="260" height="26" as="geometry" />
        </mxCell>
        <mxCell id="5BiHEe_unOmntPOv5Vft-94" value="+ updateStatus()" style="text;strokeColor=none;fillColor=none;align=left;verticalAlign=top;spacingLeft=4;spacingRight=4;overflow=hidden;rotatable=0;points=[[0,0.5],[1,0.5]];portConstraint=eastwest;whiteSpace=wrap;html=1;fontSize=16;" parent="5BiHEe_unOmntPOv5Vft-87" vertex="1">
          <mxGeometry y="398" width="260" height="26" as="geometry" />
        </mxCell>
        <mxCell id="5BiHEe_unOmntPOv5Vft-99" value="Task" style="swimlane;fontStyle=1;align=center;verticalAlign=top;childLayout=stackLayout;horizontal=1;startSize=26;horizontalStack=0;resizeParent=1;resizeParentMax=0;resizeLast=0;collapsible=1;marginBottom=0;whiteSpace=wrap;html=1;fontSize=16;" parent="1" vertex="1">
          <mxGeometry x="1580" y="-690" width="170" height="216" as="geometry" />
        </mxCell>
        <mxCell id="5BiHEe_unOmntPOv5Vft-100" value="-id: int" style="text;strokeColor=none;fillColor=none;align=left;verticalAlign=top;spacingLeft=4;spacingRight=4;overflow=hidden;rotatable=0;points=[[0,0.5],[1,0.5]];portConstraint=eastwest;whiteSpace=wrap;html=1;fontSize=16;" parent="5BiHEe_unOmntPOv5Vft-99" vertex="1">
          <mxGeometry y="26" width="170" height="26" as="geometry" />
        </mxCell>
        <mxCell id="5BiHEe_unOmntPOv5Vft-101" value="-name: String" style="text;strokeColor=none;fillColor=none;align=left;verticalAlign=top;spacingLeft=4;spacingRight=4;overflow=hidden;rotatable=0;points=[[0,0.5],[1,0.5]];portConstraint=eastwest;whiteSpace=wrap;html=1;fontSize=16;" parent="5BiHEe_unOmntPOv5Vft-99" vertex="1">
          <mxGeometry y="52" width="170" height="26" as="geometry" />
        </mxCell>
        <mxCell id="5BiHEe_unOmntPOv5Vft-111" value="-projectId: int" style="text;strokeColor=none;fillColor=none;align=left;verticalAlign=top;spacingLeft=4;spacingRight=4;overflow=hidden;rotatable=0;points=[[0,0.5],[1,0.5]];portConstraint=eastwest;whiteSpace=wrap;html=1;fontSize=16;" parent="5BiHEe_unOmntPOv5Vft-99" vertex="1">
          <mxGeometry y="78" width="170" height="26" as="geometry" />
        </mxCell>
        <mxCell id="5BiHEe_unOmntPOv5Vft-106" value="-startDate: Date" style="text;strokeColor=none;fillColor=none;align=left;verticalAlign=top;spacingLeft=4;spacingRight=4;overflow=hidden;rotatable=0;points=[[0,0.5],[1,0.5]];portConstraint=eastwest;whiteSpace=wrap;html=1;fontSize=16;" parent="5BiHEe_unOmntPOv5Vft-99" vertex="1">
          <mxGeometry y="104" width="170" height="26" as="geometry" />
        </mxCell>
        <mxCell id="5BiHEe_unOmntPOv5Vft-105" value="-dueDate: Date" style="text;strokeColor=none;fillColor=none;align=left;verticalAlign=top;spacingLeft=4;spacingRight=4;overflow=hidden;rotatable=0;points=[[0,0.5],[1,0.5]];portConstraint=eastwest;whiteSpace=wrap;html=1;fontSize=16;" parent="5BiHEe_unOmntPOv5Vft-99" vertex="1">
          <mxGeometry y="130" width="170" height="26" as="geometry" />
        </mxCell>
        <mxCell id="5BiHEe_unOmntPOv5Vft-113" value="-status: String" style="text;strokeColor=none;fillColor=none;align=left;verticalAlign=top;spacingLeft=4;spacingRight=4;overflow=hidden;rotatable=0;points=[[0,0.5],[1,0.5]];portConstraint=eastwest;whiteSpace=wrap;html=1;fontSize=16;" parent="5BiHEe_unOmntPOv5Vft-99" vertex="1">
          <mxGeometry y="156" width="170" height="26" as="geometry" />
        </mxCell>
        <mxCell id="5BiHEe_unOmntPOv5Vft-107" value="" style="line;strokeWidth=1;fillColor=none;align=left;verticalAlign=middle;spacingTop=-1;spacingLeft=3;spacingRight=3;rotatable=0;labelPosition=right;points=[];portConstraint=eastwest;strokeColor=inherit;fontSize=16;" parent="5BiHEe_unOmntPOv5Vft-99" vertex="1">
          <mxGeometry y="182" width="170" height="8" as="geometry" />
        </mxCell>
        <mxCell id="5BiHEe_unOmntPOv5Vft-108" value="+ updateStatus()" style="text;strokeColor=none;fillColor=none;align=left;verticalAlign=top;spacingLeft=4;spacingRight=4;overflow=hidden;rotatable=0;points=[[0,0.5],[1,0.5]];portConstraint=eastwest;whiteSpace=wrap;html=1;fontSize=16;" parent="5BiHEe_unOmntPOv5Vft-99" vertex="1">
          <mxGeometry y="190" width="170" height="26" as="geometry" />
        </mxCell>
        <mxCell id="5BiHEe_unOmntPOv5Vft-115" value="Meeting" style="swimlane;fontStyle=1;align=center;verticalAlign=top;childLayout=stackLayout;horizontal=1;startSize=26;horizontalStack=0;resizeParent=1;resizeParentMax=0;resizeLast=0;collapsible=1;marginBottom=0;whiteSpace=wrap;html=1;fontSize=16;" parent="1" vertex="1">
          <mxGeometry x="2160" y="-1420" width="240" height="318" as="geometry" />
        </mxCell>
        <mxCell id="5BiHEe_unOmntPOv5Vft-116" value="-id: int" style="text;strokeColor=none;fillColor=none;align=left;verticalAlign=top;spacingLeft=4;spacingRight=4;overflow=hidden;rotatable=0;points=[[0,0.5],[1,0.5]];portConstraint=eastwest;whiteSpace=wrap;html=1;fontSize=16;" parent="5BiHEe_unOmntPOv5Vft-115" vertex="1">
          <mxGeometry y="26" width="240" height="26" as="geometry" />
        </mxCell>
        <mxCell id="5BiHEe_unOmntPOv5Vft-117" value="-name: String" style="text;strokeColor=none;fillColor=none;align=left;verticalAlign=top;spacingLeft=4;spacingRight=4;overflow=hidden;rotatable=0;points=[[0,0.5],[1,0.5]];portConstraint=eastwest;whiteSpace=wrap;html=1;fontSize=16;" parent="5BiHEe_unOmntPOv5Vft-115" vertex="1">
          <mxGeometry y="52" width="240" height="26" as="geometry" />
        </mxCell>
        <mxCell id="5BiHEe_unOmntPOv5Vft-118" value="-participants: List&amp;lt;Employee&amp;gt;" style="text;strokeColor=none;fillColor=none;align=left;verticalAlign=top;spacingLeft=4;spacingRight=4;overflow=hidden;rotatable=0;points=[[0,0.5],[1,0.5]];portConstraint=eastwest;whiteSpace=wrap;html=1;fontSize=16;" parent="5BiHEe_unOmntPOv5Vft-115" vertex="1">
          <mxGeometry y="78" width="240" height="26" as="geometry" />
        </mxCell>
        <mxCell id="5BiHEe_unOmntPOv5Vft-120" value="-location: String" style="text;strokeColor=none;fillColor=none;align=left;verticalAlign=top;spacingLeft=4;spacingRight=4;overflow=hidden;rotatable=0;points=[[0,0.5],[1,0.5]];portConstraint=eastwest;whiteSpace=wrap;html=1;fontSize=16;" parent="5BiHEe_unOmntPOv5Vft-115" vertex="1">
          <mxGeometry y="104" width="240" height="26" as="geometry" />
        </mxCell>
        <mxCell id="5BiHEe_unOmntPOv5Vft-121" value="-agenda: String" style="text;strokeColor=none;fillColor=none;align=left;verticalAlign=top;spacingLeft=4;spacingRight=4;overflow=hidden;rotatable=0;points=[[0,0.5],[1,0.5]];portConstraint=eastwest;whiteSpace=wrap;html=1;fontSize=16;" parent="5BiHEe_unOmntPOv5Vft-115" vertex="1">
          <mxGeometry y="130" width="240" height="26" as="geometry" />
        </mxCell>
        <mxCell id="5BiHEe_unOmntPOv5Vft-122" value="-notes: String" style="text;strokeColor=none;fillColor=none;align=left;verticalAlign=top;spacingLeft=4;spacingRight=4;overflow=hidden;rotatable=0;points=[[0,0.5],[1,0.5]];portConstraint=eastwest;whiteSpace=wrap;html=1;fontSize=16;" parent="5BiHEe_unOmntPOv5Vft-115" vertex="1">
          <mxGeometry y="156" width="240" height="26" as="geometry" />
        </mxCell>
        <mxCell id="5BiHEe_unOmntPOv5Vft-124" value="-startDate: Date" style="text;strokeColor=none;fillColor=none;align=left;verticalAlign=top;spacingLeft=4;spacingRight=4;overflow=hidden;rotatable=0;points=[[0,0.5],[1,0.5]];portConstraint=eastwest;whiteSpace=wrap;html=1;fontSize=16;" parent="5BiHEe_unOmntPOv5Vft-115" vertex="1">
          <mxGeometry y="182" width="240" height="26" as="geometry" />
        </mxCell>
        <mxCell id="5BiHEe_unOmntPOv5Vft-125" value="" style="line;strokeWidth=1;fillColor=none;align=left;verticalAlign=middle;spacingTop=-1;spacingLeft=3;spacingRight=3;rotatable=0;labelPosition=right;points=[];portConstraint=eastwest;strokeColor=inherit;fontSize=16;" parent="5BiHEe_unOmntPOv5Vft-115" vertex="1">
          <mxGeometry y="208" width="240" height="8" as="geometry" />
        </mxCell>
        <mxCell id="5BiHEe_unOmntPOv5Vft-165" value="+ scheduleMeeting()" style="text;strokeColor=none;fillColor=none;align=left;verticalAlign=top;spacingLeft=4;spacingRight=4;overflow=hidden;rotatable=0;points=[[0,0.5],[1,0.5]];portConstraint=eastwest;whiteSpace=wrap;html=1;fontSize=16;" parent="5BiHEe_unOmntPOv5Vft-115" vertex="1">
          <mxGeometry y="216" width="240" height="26" as="geometry" />
        </mxCell>
        <mxCell id="5BiHEe_unOmntPOv5Vft-126" value="+ updateAgenda()" style="text;strokeColor=none;fillColor=none;align=left;verticalAlign=top;spacingLeft=4;spacingRight=4;overflow=hidden;rotatable=0;points=[[0,0.5],[1,0.5]];portConstraint=eastwest;whiteSpace=wrap;html=1;fontSize=16;" parent="5BiHEe_unOmntPOv5Vft-115" vertex="1">
          <mxGeometry y="242" width="240" height="24" as="geometry" />
        </mxCell>
        <mxCell id="5BiHEe_unOmntPOv5Vft-166" value="+ addParticipant()" style="text;strokeColor=none;fillColor=none;align=left;verticalAlign=top;spacingLeft=4;spacingRight=4;overflow=hidden;rotatable=0;points=[[0,0.5],[1,0.5]];portConstraint=eastwest;whiteSpace=wrap;html=1;fontSize=16;" parent="5BiHEe_unOmntPOv5Vft-115" vertex="1">
          <mxGeometry y="266" width="240" height="26" as="geometry" />
        </mxCell>
        <mxCell id="5BiHEe_unOmntPOv5Vft-167" value="+ recordNotes()" style="text;strokeColor=none;fillColor=none;align=left;verticalAlign=top;spacingLeft=4;spacingRight=4;overflow=hidden;rotatable=0;points=[[0,0.5],[1,0.5]];portConstraint=eastwest;whiteSpace=wrap;html=1;fontSize=16;" parent="5BiHEe_unOmntPOv5Vft-115" vertex="1">
          <mxGeometry y="292" width="240" height="26" as="geometry" />
        </mxCell>
        <mxCell id="5BiHEe_unOmntPOv5Vft-127" value="Notification" style="swimlane;fontStyle=1;align=center;verticalAlign=top;childLayout=stackLayout;horizontal=1;startSize=26;horizontalStack=0;resizeParent=1;resizeParentMax=0;resizeLast=0;collapsible=1;marginBottom=0;whiteSpace=wrap;html=1;fontSize=16;" parent="1" vertex="1">
          <mxGeometry x="2165" y="-778" width="230" height="216" as="geometry" />
        </mxCell>
        <mxCell id="5BiHEe_unOmntPOv5Vft-128" value="-id: int" style="text;strokeColor=none;fillColor=none;align=left;verticalAlign=top;spacingLeft=4;spacingRight=4;overflow=hidden;rotatable=0;points=[[0,0.5],[1,0.5]];portConstraint=eastwest;whiteSpace=wrap;html=1;fontSize=16;" parent="5BiHEe_unOmntPOv5Vft-127" vertex="1">
          <mxGeometry y="26" width="230" height="26" as="geometry" />
        </mxCell>
        <mxCell id="5BiHEe_unOmntPOv5Vft-129" value="-name: String" style="text;strokeColor=none;fillColor=none;align=left;verticalAlign=top;spacingLeft=4;spacingRight=4;overflow=hidden;rotatable=0;points=[[0,0.5],[1,0.5]];portConstraint=eastwest;whiteSpace=wrap;html=1;fontSize=16;" parent="5BiHEe_unOmntPOv5Vft-127" vertex="1">
          <mxGeometry y="52" width="230" height="26" as="geometry" />
        </mxCell>
        <mxCell id="5BiHEe_unOmntPOv5Vft-130" value="-content: String" style="text;strokeColor=none;fillColor=none;align=left;verticalAlign=top;spacingLeft=4;spacingRight=4;overflow=hidden;rotatable=0;points=[[0,0.5],[1,0.5]];portConstraint=eastwest;whiteSpace=wrap;html=1;fontSize=16;" parent="5BiHEe_unOmntPOv5Vft-127" vertex="1">
          <mxGeometry y="78" width="230" height="26" as="geometry" />
        </mxCell>
        <mxCell id="5BiHEe_unOmntPOv5Vft-131" value="-sender: Employee" style="text;strokeColor=none;fillColor=none;align=left;verticalAlign=top;spacingLeft=4;spacingRight=4;overflow=hidden;rotatable=0;points=[[0,0.5],[1,0.5]];portConstraint=eastwest;whiteSpace=wrap;html=1;fontSize=16;" parent="5BiHEe_unOmntPOv5Vft-127" vertex="1">
          <mxGeometry y="104" width="230" height="26" as="geometry" />
        </mxCell>
        <mxCell id="5BiHEe_unOmntPOv5Vft-132" value="-recipients: List&amp;lt;Employee&amp;gt;" style="text;strokeColor=none;fillColor=none;align=left;verticalAlign=top;spacingLeft=4;spacingRight=4;overflow=hidden;rotatable=0;points=[[0,0.5],[1,0.5]];portConstraint=eastwest;whiteSpace=wrap;html=1;fontSize=16;" parent="5BiHEe_unOmntPOv5Vft-127" vertex="1">
          <mxGeometry y="130" width="230" height="26" as="geometry" />
        </mxCell>
        <mxCell id="5BiHEe_unOmntPOv5Vft-133" value="-timestamp: Timestamp" style="text;strokeColor=none;fillColor=none;align=left;verticalAlign=top;spacingLeft=4;spacingRight=4;overflow=hidden;rotatable=0;points=[[0,0.5],[1,0.5]];portConstraint=eastwest;whiteSpace=wrap;html=1;fontSize=16;" parent="5BiHEe_unOmntPOv5Vft-127" vertex="1">
          <mxGeometry y="156" width="230" height="26" as="geometry" />
        </mxCell>
        <mxCell id="5BiHEe_unOmntPOv5Vft-135" value="" style="line;strokeWidth=1;fillColor=none;align=left;verticalAlign=middle;spacingTop=-1;spacingLeft=3;spacingRight=3;rotatable=0;labelPosition=right;points=[];portConstraint=eastwest;strokeColor=inherit;fontSize=16;" parent="5BiHEe_unOmntPOv5Vft-127" vertex="1">
          <mxGeometry y="182" width="230" height="8" as="geometry" />
        </mxCell>
        <mxCell id="5BiHEe_unOmntPOv5Vft-136" value="+ sendNotification()" style="text;strokeColor=none;fillColor=none;align=left;verticalAlign=top;spacingLeft=4;spacingRight=4;overflow=hidden;rotatable=0;points=[[0,0.5],[1,0.5]];portConstraint=eastwest;whiteSpace=wrap;html=1;fontSize=16;" parent="5BiHEe_unOmntPOv5Vft-127" vertex="1">
          <mxGeometry y="190" width="230" height="26" as="geometry" />
        </mxCell>
        <mxCell id="5BiHEe_unOmntPOv5Vft-137" value="LeaveRequest" style="swimlane;fontStyle=1;align=center;verticalAlign=top;childLayout=stackLayout;horizontal=1;startSize=26;horizontalStack=0;resizeParent=1;resizeParentMax=0;resizeLast=0;collapsible=1;marginBottom=0;whiteSpace=wrap;html=1;fontSize=16;" parent="1" vertex="1">
          <mxGeometry x="2160" y="-1070" width="210" height="242" as="geometry" />
        </mxCell>
        <mxCell id="5BiHEe_unOmntPOv5Vft-138" value="-id: int" style="text;strokeColor=none;fillColor=none;align=left;verticalAlign=top;spacingLeft=4;spacingRight=4;overflow=hidden;rotatable=0;points=[[0,0.5],[1,0.5]];portConstraint=eastwest;whiteSpace=wrap;html=1;fontSize=16;" parent="5BiHEe_unOmntPOv5Vft-137" vertex="1">
          <mxGeometry y="26" width="210" height="26" as="geometry" />
        </mxCell>
        <mxCell id="5BiHEe_unOmntPOv5Vft-139" value="-employee: Employee" style="text;strokeColor=none;fillColor=none;align=left;verticalAlign=top;spacingLeft=4;spacingRight=4;overflow=hidden;rotatable=0;points=[[0,0.5],[1,0.5]];portConstraint=eastwest;whiteSpace=wrap;html=1;fontSize=16;" parent="5BiHEe_unOmntPOv5Vft-137" vertex="1">
          <mxGeometry y="52" width="210" height="26" as="geometry" />
        </mxCell>
        <mxCell id="5BiHEe_unOmntPOv5Vft-140" value="-startDate: Date" style="text;strokeColor=none;fillColor=none;align=left;verticalAlign=top;spacingLeft=4;spacingRight=4;overflow=hidden;rotatable=0;points=[[0,0.5],[1,0.5]];portConstraint=eastwest;whiteSpace=wrap;html=1;fontSize=16;" parent="5BiHEe_unOmntPOv5Vft-137" vertex="1">
          <mxGeometry y="78" width="210" height="26" as="geometry" />
        </mxCell>
        <mxCell id="5BiHEe_unOmntPOv5Vft-141" value="-endDate: Date" style="text;strokeColor=none;fillColor=none;align=left;verticalAlign=top;spacingLeft=4;spacingRight=4;overflow=hidden;rotatable=0;points=[[0,0.5],[1,0.5]];portConstraint=eastwest;whiteSpace=wrap;html=1;fontSize=16;" parent="5BiHEe_unOmntPOv5Vft-137" vertex="1">
          <mxGeometry y="104" width="210" height="26" as="geometry" />
        </mxCell>
        <mxCell id="5BiHEe_unOmntPOv5Vft-142" value="-reason: String" style="text;strokeColor=none;fillColor=none;align=left;verticalAlign=top;spacingLeft=4;spacingRight=4;overflow=hidden;rotatable=0;points=[[0,0.5],[1,0.5]];portConstraint=eastwest;whiteSpace=wrap;html=1;fontSize=16;" parent="5BiHEe_unOmntPOv5Vft-137" vertex="1">
          <mxGeometry y="130" width="210" height="26" as="geometry" />
        </mxCell>
        <mxCell id="5BiHEe_unOmntPOv5Vft-143" value="-status:Enum" style="text;strokeColor=none;fillColor=none;align=left;verticalAlign=top;spacingLeft=4;spacingRight=4;overflow=hidden;rotatable=0;points=[[0,0.5],[1,0.5]];portConstraint=eastwest;whiteSpace=wrap;html=1;fontSize=16;" parent="5BiHEe_unOmntPOv5Vft-137" vertex="1">
          <mxGeometry y="156" width="210" height="26" as="geometry" />
        </mxCell>
        <mxCell id="5BiHEe_unOmntPOv5Vft-144" value="" style="line;strokeWidth=1;fillColor=none;align=left;verticalAlign=middle;spacingTop=-1;spacingLeft=3;spacingRight=3;rotatable=0;labelPosition=right;points=[];portConstraint=eastwest;strokeColor=inherit;fontSize=16;" parent="5BiHEe_unOmntPOv5Vft-137" vertex="1">
          <mxGeometry y="182" width="210" height="8" as="geometry" />
        </mxCell>
        <mxCell id="5BiHEe_unOmntPOv5Vft-158" value="+ approveRequest()" style="text;strokeColor=none;fillColor=none;align=left;verticalAlign=top;spacingLeft=4;spacingRight=4;overflow=hidden;rotatable=0;points=[[0,0.5],[1,0.5]];portConstraint=eastwest;whiteSpace=wrap;html=1;fontSize=16;" parent="5BiHEe_unOmntPOv5Vft-137" vertex="1">
          <mxGeometry y="190" width="210" height="26" as="geometry" />
        </mxCell>
        <mxCell id="5BiHEe_unOmntPOv5Vft-159" value="+ rejectRequest()" style="text;strokeColor=none;fillColor=none;align=left;verticalAlign=top;spacingLeft=4;spacingRight=4;overflow=hidden;rotatable=0;points=[[0,0.5],[1,0.5]];portConstraint=eastwest;whiteSpace=wrap;html=1;fontSize=16;" parent="5BiHEe_unOmntPOv5Vft-137" vertex="1">
          <mxGeometry y="216" width="210" height="26" as="geometry" />
        </mxCell>
        <mxCell id="5BiHEe_unOmntPOv5Vft-195" value="Admin" style="swimlane;fontStyle=1;align=center;verticalAlign=top;childLayout=stackLayout;horizontal=1;startSize=26;horizontalStack=0;resizeParent=1;resizeParentMax=0;resizeLast=0;collapsible=1;marginBottom=0;whiteSpace=wrap;html=1;fontSize=16;" parent="1" vertex="1">
          <mxGeometry x="1630" y="-1860" width="280" height="112" as="geometry">
            <mxRectangle x="510" y="110" width="120" height="30" as="alternateBounds" />
          </mxGeometry>
        </mxCell>
        <mxCell id="5BiHEe_unOmntPOv5Vft-197" value="" style="line;strokeWidth=1;fillColor=none;align=left;verticalAlign=middle;spacingTop=-1;spacingLeft=3;spacingRight=3;rotatable=0;labelPosition=right;points=[];portConstraint=eastwest;strokeColor=inherit;fontSize=16;" parent="5BiHEe_unOmntPOv5Vft-195" vertex="1">
          <mxGeometry y="26" width="280" height="8" as="geometry" />
        </mxCell>
        <mxCell id="5BiHEe_unOmntPOv5Vft-198" value="+ createAccount()" style="text;strokeColor=none;fillColor=none;align=left;verticalAlign=top;spacingLeft=4;spacingRight=4;overflow=hidden;rotatable=0;points=[[0,0.5],[1,0.5]];portConstraint=eastwest;whiteSpace=wrap;html=1;fontSize=16;" parent="5BiHEe_unOmntPOv5Vft-195" vertex="1">
          <mxGeometry y="34" width="280" height="26" as="geometry" />
        </mxCell>
        <mxCell id="5BiHEe_unOmntPOv5Vft-199" value="+ updateRole()" style="text;strokeColor=none;fillColor=none;align=left;verticalAlign=top;spacingLeft=4;spacingRight=4;overflow=hidden;rotatable=0;points=[[0,0.5],[1,0.5]];portConstraint=eastwest;whiteSpace=wrap;html=1;fontSize=16;" parent="5BiHEe_unOmntPOv5Vft-195" vertex="1">
          <mxGeometry y="60" width="280" height="26" as="geometry" />
        </mxCell>
        <mxCell id="5BiHEe_unOmntPOv5Vft-298" value="+ updateRoleToUser()" style="text;strokeColor=none;fillColor=none;align=left;verticalAlign=top;spacingLeft=4;spacingRight=4;overflow=hidden;rotatable=0;points=[[0,0.5],[1,0.5]];portConstraint=eastwest;whiteSpace=wrap;html=1;fontSize=16;" parent="5BiHEe_unOmntPOv5Vft-195" vertex="1">
          <mxGeometry y="86" width="280" height="26" as="geometry" />
        </mxCell>
        <mxCell id="5BiHEe_unOmntPOv5Vft-213" value="" style="endArrow=diamondThin;endFill=0;endSize=24;html=1;rounded=0;fontSize=12;exitX=0.5;exitY=0;exitDx=0;exitDy=0;edgeStyle=elbowEdgeStyle;elbow=vertical;entryX=0.557;entryY=1.167;entryDx=0;entryDy=0;entryPerimeter=0;" parent="1" source="5BiHEe_unOmntPOv5Vft-20" edge="1" target="5BiHEe_unOmntPOv5Vft-298">
          <mxGeometry width="160" relative="1" as="geometry">
            <mxPoint x="1200" y="-1500" as="sourcePoint" />
            <mxPoint x="1789" y="-1780" as="targetPoint" />
          </mxGeometry>
        </mxCell>
        <mxCell id="5BiHEe_unOmntPOv5Vft-214" value="1..*" style="edgeLabel;html=1;align=center;verticalAlign=middle;resizable=0;points=[];fontSize=16;" parent="5BiHEe_unOmntPOv5Vft-213" vertex="1" connectable="0">
          <mxGeometry x="-0.7394" y="3" relative="1" as="geometry">
            <mxPoint x="4" y="1" as="offset" />
          </mxGeometry>
        </mxCell>
        <mxCell id="5BiHEe_unOmntPOv5Vft-215" value="Create" style="edgeLabel;html=1;align=center;verticalAlign=middle;resizable=0;points=[];fontSize=16;" parent="5BiHEe_unOmntPOv5Vft-213" vertex="1" connectable="0">
          <mxGeometry x="0.0717" y="4" relative="1" as="geometry">
            <mxPoint as="offset" />
          </mxGeometry>
        </mxCell>
        <mxCell id="5BiHEe_unOmntPOv5Vft-217" value="" style="endArrow=none;html=1;rounded=0;fontSize=12;startSize=8;endSize=8;exitX=0.5;exitY=0;exitDx=0;exitDy=0;entryX=0.498;entryY=1.06;entryDx=0;entryDy=0;entryPerimeter=0;" parent="1" source="5BiHEe_unOmntPOv5Vft-27" target="5BiHEe_unOmntPOv5Vft-24" edge="1">
          <mxGeometry width="50" height="50" relative="1" as="geometry">
            <mxPoint x="1310" y="-1300" as="sourcePoint" />
            <mxPoint x="1650" y="-1430" as="targetPoint" />
          </mxGeometry>
        </mxCell>
        <mxCell id="5BiHEe_unOmntPOv5Vft-218" value="Has" style="edgeLabel;html=1;align=center;verticalAlign=middle;resizable=0;points=[];fontSize=16;" parent="5BiHEe_unOmntPOv5Vft-217" vertex="1" connectable="0">
          <mxGeometry x="-0.0107" y="3" relative="1" as="geometry">
            <mxPoint as="offset" />
          </mxGeometry>
        </mxCell>
        <mxCell id="5BiHEe_unOmntPOv5Vft-230" value="1" style="edgeLabel;html=1;align=center;verticalAlign=middle;resizable=0;points=[];fontSize=16;" parent="5BiHEe_unOmntPOv5Vft-217" vertex="1" connectable="0">
          <mxGeometry x="0.8062" relative="1" as="geometry">
            <mxPoint x="2" as="offset" />
          </mxGeometry>
        </mxCell>
        <mxCell id="5BiHEe_unOmntPOv5Vft-231" value="1" style="edgeLabel;html=1;align=center;verticalAlign=middle;resizable=0;points=[];fontSize=16;" parent="5BiHEe_unOmntPOv5Vft-217" vertex="1" connectable="0">
          <mxGeometry x="-0.79" relative="1" as="geometry">
            <mxPoint x="2" as="offset" />
          </mxGeometry>
        </mxCell>
        <mxCell id="5BiHEe_unOmntPOv5Vft-219" value="Role" style="swimlane;fontStyle=1;align=center;verticalAlign=top;childLayout=stackLayout;horizontal=1;startSize=26;horizontalStack=0;resizeParent=1;resizeParentMax=0;resizeLast=0;collapsible=1;marginBottom=0;whiteSpace=wrap;html=1;fontSize=16;" parent="1" vertex="1">
          <mxGeometry x="2020" y="-1680" width="180" height="164" as="geometry" />
        </mxCell>
        <mxCell id="5BiHEe_unOmntPOv5Vft-220" value="-id: int" style="text;strokeColor=none;fillColor=none;align=left;verticalAlign=top;spacingLeft=4;spacingRight=4;overflow=hidden;rotatable=0;points=[[0,0.5],[1,0.5]];portConstraint=eastwest;whiteSpace=wrap;html=1;fontSize=16;" parent="5BiHEe_unOmntPOv5Vft-219" vertex="1">
          <mxGeometry y="26" width="180" height="26" as="geometry" />
        </mxCell>
        <mxCell id="5BiHEe_unOmntPOv5Vft-221" value="-name: String" style="text;strokeColor=none;fillColor=none;align=left;verticalAlign=top;spacingLeft=4;spacingRight=4;overflow=hidden;rotatable=0;points=[[0,0.5],[1,0.5]];portConstraint=eastwest;whiteSpace=wrap;html=1;fontSize=16;" parent="5BiHEe_unOmntPOv5Vft-219" vertex="1">
          <mxGeometry y="52" width="180" height="26" as="geometry" />
        </mxCell>
        <mxCell id="5BiHEe_unOmntPOv5Vft-223" value="-role: Enum" style="text;strokeColor=none;fillColor=none;align=left;verticalAlign=top;spacingLeft=4;spacingRight=4;overflow=hidden;rotatable=0;points=[[0,0.5],[1,0.5]];portConstraint=eastwest;whiteSpace=wrap;html=1;fontSize=16;" parent="5BiHEe_unOmntPOv5Vft-219" vertex="1">
          <mxGeometry y="78" width="180" height="26" as="geometry" />
        </mxCell>
        <mxCell id="5BiHEe_unOmntPOv5Vft-224" value="" style="line;strokeWidth=1;fillColor=none;align=left;verticalAlign=middle;spacingTop=-1;spacingLeft=3;spacingRight=3;rotatable=0;labelPosition=right;points=[];portConstraint=eastwest;strokeColor=inherit;fontSize=16;" parent="5BiHEe_unOmntPOv5Vft-219" vertex="1">
          <mxGeometry y="104" width="180" height="8" as="geometry" />
        </mxCell>
        <mxCell id="5BiHEe_unOmntPOv5Vft-225" value="+ changePassword()" style="text;strokeColor=none;fillColor=none;align=left;verticalAlign=top;spacingLeft=4;spacingRight=4;overflow=hidden;rotatable=0;points=[[0,0.5],[1,0.5]];portConstraint=eastwest;whiteSpace=wrap;html=1;fontSize=16;" parent="5BiHEe_unOmntPOv5Vft-219" vertex="1">
          <mxGeometry y="112" width="180" height="26" as="geometry" />
        </mxCell>
        <mxCell id="5BiHEe_unOmntPOv5Vft-226" value="+ updateRole()" style="text;strokeColor=none;fillColor=none;align=left;verticalAlign=top;spacingLeft=4;spacingRight=4;overflow=hidden;rotatable=0;points=[[0,0.5],[1,0.5]];portConstraint=eastwest;whiteSpace=wrap;html=1;fontSize=16;" parent="5BiHEe_unOmntPOv5Vft-219" vertex="1">
          <mxGeometry y="138" width="180" height="26" as="geometry" />
        </mxCell>
        <mxCell id="5BiHEe_unOmntPOv5Vft-228" value="" style="endArrow=none;html=1;rounded=0;fontSize=12;startSize=8;endSize=8;exitX=0;exitY=0.5;exitDx=0;exitDy=0;entryX=1;entryY=0.5;entryDx=0;entryDy=0;edgeStyle=elbowEdgeStyle;" parent="1" source="5BiHEe_unOmntPOv5Vft-223" target="5BiHEe_unOmntPOv5Vft-26" edge="1">
          <mxGeometry width="50" height="50" relative="1" as="geometry">
            <mxPoint x="1660" y="-1340" as="sourcePoint" />
            <mxPoint x="1660" y="-1444" as="targetPoint" />
          </mxGeometry>
        </mxCell>
        <mxCell id="5BiHEe_unOmntPOv5Vft-229" value="Has" style="edgeLabel;html=1;align=center;verticalAlign=middle;resizable=0;points=[];fontSize=16;" parent="5BiHEe_unOmntPOv5Vft-228" vertex="1" connectable="0">
          <mxGeometry x="-0.0107" y="3" relative="1" as="geometry">
            <mxPoint y="-4" as="offset" />
          </mxGeometry>
        </mxCell>
        <mxCell id="5BiHEe_unOmntPOv5Vft-232" value="1" style="edgeLabel;html=1;align=center;verticalAlign=middle;resizable=0;points=[];fontSize=16;" parent="5BiHEe_unOmntPOv5Vft-228" vertex="1" connectable="0">
          <mxGeometry x="0.833" y="1" relative="1" as="geometry">
            <mxPoint x="2" y="-3" as="offset" />
          </mxGeometry>
        </mxCell>
        <mxCell id="5BiHEe_unOmntPOv5Vft-233" value="1..*" style="edgeLabel;html=1;align=center;verticalAlign=middle;resizable=0;points=[];fontSize=16;" parent="5BiHEe_unOmntPOv5Vft-228" vertex="1" connectable="0">
          <mxGeometry x="-0.7494" relative="1" as="geometry">
            <mxPoint x="-4" y="-2" as="offset" />
          </mxGeometry>
        </mxCell>
        <mxCell id="5BiHEe_unOmntPOv5Vft-235" value="" style="endArrow=diamondThin;endFill=1;endSize=24;html=1;rounded=0;fontSize=12;entryX=0.474;entryY=0.962;entryDx=0;entryDy=0;entryPerimeter=0;exitX=0.568;exitY=-0.011;exitDx=0;exitDy=0;exitPerimeter=0;edgeStyle=orthogonalEdgeStyle;" parent="1" source="5BiHEe_unOmntPOv5Vft-58" target="5BiHEe_unOmntPOv5Vft-16" edge="1">
          <mxGeometry width="160" relative="1" as="geometry">
            <mxPoint x="1460" y="-1370" as="sourcePoint" />
            <mxPoint x="1620" y="-1370" as="targetPoint" />
          </mxGeometry>
        </mxCell>
        <mxCell id="5BiHEe_unOmntPOv5Vft-236" value="*" style="edgeLabel;html=1;align=center;verticalAlign=middle;resizable=0;points=[];fontSize=16;" parent="5BiHEe_unOmntPOv5Vft-235" vertex="1" connectable="0">
          <mxGeometry x="-0.7501" y="1" relative="1" as="geometry">
            <mxPoint y="24" as="offset" />
          </mxGeometry>
        </mxCell>
        <mxCell id="5BiHEe_unOmntPOv5Vft-279" value="1" style="edgeLabel;html=1;align=center;verticalAlign=middle;resizable=0;points=[];fontSize=16;" parent="5BiHEe_unOmntPOv5Vft-235" vertex="1" connectable="0">
          <mxGeometry x="0.6662" y="1" relative="1" as="geometry">
            <mxPoint y="-14" as="offset" />
          </mxGeometry>
        </mxCell>
        <mxCell id="5BiHEe_unOmntPOv5Vft-237" value="" style="endArrow=diamondThin;endFill=1;endSize=24;html=1;rounded=0;fontSize=12;entryX=1;entryY=0.5;entryDx=0;entryDy=0;exitX=0;exitY=0.5;exitDx=0;exitDy=0;edgeStyle=orthogonalEdgeStyle;" parent="1" source="5BiHEe_unOmntPOv5Vft-36" target="5BiHEe_unOmntPOv5Vft-64" edge="1">
          <mxGeometry width="160" relative="1" as="geometry">
            <mxPoint x="1710" y="-1380" as="sourcePoint" />
            <mxPoint x="1870" y="-1380" as="targetPoint" />
          </mxGeometry>
        </mxCell>
        <mxCell id="5BiHEe_unOmntPOv5Vft-240" value="1..*" style="edgeLabel;html=1;align=center;verticalAlign=middle;resizable=0;points=[];fontSize=16;" parent="5BiHEe_unOmntPOv5Vft-237" vertex="1" connectable="0">
          <mxGeometry x="-0.6199" relative="1" as="geometry">
            <mxPoint x="17" y="-2" as="offset" />
          </mxGeometry>
        </mxCell>
        <mxCell id="5BiHEe_unOmntPOv5Vft-241" value="1" style="edgeLabel;html=1;align=center;verticalAlign=middle;resizable=0;points=[];fontSize=16;" parent="5BiHEe_unOmntPOv5Vft-237" vertex="1" connectable="0">
          <mxGeometry x="0.5" y="1" relative="1" as="geometry">
            <mxPoint x="-36" y="-3" as="offset" />
          </mxGeometry>
        </mxCell>
        <mxCell id="5BiHEe_unOmntPOv5Vft-238" value="" style="endArrow=diamondThin;endFill=0;endSize=24;html=1;rounded=0;fontSize=12;entryX=0;entryY=0.5;entryDx=0;entryDy=0;exitX=1.007;exitY=0.859;exitDx=0;exitDy=0;exitPerimeter=0;edgeStyle=orthogonalEdgeStyle;" parent="1" source="5BiHEe_unOmntPOv5Vft-18" target="5BiHEe_unOmntPOv5Vft-198" edge="1">
          <mxGeometry width="160" relative="1" as="geometry">
            <mxPoint x="1380" y="-1810" as="sourcePoint" />
            <mxPoint x="1540" y="-1810" as="targetPoint" />
          </mxGeometry>
        </mxCell>
        <mxCell id="5BiHEe_unOmntPOv5Vft-239" value="Update" style="edgeLabel;html=1;align=center;verticalAlign=middle;resizable=0;points=[];fontSize=16;" parent="5BiHEe_unOmntPOv5Vft-238" vertex="1" connectable="0">
          <mxGeometry x="-0.1503" y="-1" relative="1" as="geometry">
            <mxPoint x="6" y="-3" as="offset" />
          </mxGeometry>
        </mxCell>
        <mxCell id="5BiHEe_unOmntPOv5Vft-253" value="" style="endArrow=diamondThin;endFill=0;endSize=24;html=1;rounded=0;fontSize=12;exitX=1;exitY=0.5;exitDx=0;exitDy=0;entryX=0;entryY=0.5;entryDx=0;entryDy=0;edgeStyle=orthogonalEdgeStyle;" parent="1" source="5BiHEe_unOmntPOv5Vft-34" target="5BiHEe_unOmntPOv5Vft-118" edge="1">
          <mxGeometry width="160" relative="1" as="geometry">
            <mxPoint x="1930" y="-1220" as="sourcePoint" />
            <mxPoint x="2090" y="-1220" as="targetPoint" />
          </mxGeometry>
        </mxCell>
        <mxCell id="5BiHEe_unOmntPOv5Vft-254" value="Attend" style="edgeLabel;html=1;align=center;verticalAlign=middle;resizable=0;points=[];fontSize=16;" parent="5BiHEe_unOmntPOv5Vft-253" vertex="1" connectable="0">
          <mxGeometry x="-0.4189" y="2" relative="1" as="geometry">
            <mxPoint x="50" y="-49" as="offset" />
          </mxGeometry>
        </mxCell>
        <mxCell id="5BiHEe_unOmntPOv5Vft-255" value="*" style="edgeLabel;html=1;align=center;verticalAlign=middle;resizable=0;points=[];fontSize=16;" parent="5BiHEe_unOmntPOv5Vft-253" vertex="1" connectable="0">
          <mxGeometry x="-0.8748" y="-2" relative="1" as="geometry">
            <mxPoint x="-3" y="-6" as="offset" />
          </mxGeometry>
        </mxCell>
        <mxCell id="5BiHEe_unOmntPOv5Vft-257" value="*" style="edgeLabel;html=1;align=center;verticalAlign=middle;resizable=0;points=[];fontSize=16;" parent="5BiHEe_unOmntPOv5Vft-253" vertex="1" connectable="0">
          <mxGeometry x="0.7591" relative="1" as="geometry">
            <mxPoint x="10" y="-5" as="offset" />
          </mxGeometry>
        </mxCell>
        <mxCell id="5BiHEe_unOmntPOv5Vft-258" value="" style="endArrow=diamondThin;endFill=0;endSize=24;html=1;rounded=0;fontSize=12;exitX=1.01;exitY=-0.061;exitDx=0;exitDy=0;entryX=0;entryY=0.5;entryDx=0;entryDy=0;edgeStyle=orthogonalEdgeStyle;exitPerimeter=0;" parent="1" source="5BiHEe_unOmntPOv5Vft-30" target="5BiHEe_unOmntPOv5Vft-139" edge="1">
          <mxGeometry width="160" relative="1" as="geometry">
            <mxPoint x="1774.74" y="-1000" as="sourcePoint" />
            <mxPoint x="2144.74" y="-1110" as="targetPoint" />
          </mxGeometry>
        </mxCell>
        <mxCell id="5BiHEe_unOmntPOv5Vft-259" value="Request" style="edgeLabel;html=1;align=center;verticalAlign=middle;resizable=0;points=[];fontSize=16;" parent="5BiHEe_unOmntPOv5Vft-258" vertex="1" connectable="0">
          <mxGeometry x="-0.4189" y="2" relative="1" as="geometry">
            <mxPoint x="32" y="78" as="offset" />
          </mxGeometry>
        </mxCell>
        <mxCell id="5BiHEe_unOmntPOv5Vft-260" value="*" style="edgeLabel;html=1;align=center;verticalAlign=middle;resizable=0;points=[];fontSize=16;" parent="5BiHEe_unOmntPOv5Vft-258" vertex="1" connectable="0">
          <mxGeometry x="-0.8748" y="-2" relative="1" as="geometry">
            <mxPoint x="-1" y="-8" as="offset" />
          </mxGeometry>
        </mxCell>
        <mxCell id="5BiHEe_unOmntPOv5Vft-261" value="*" style="edgeLabel;html=1;align=center;verticalAlign=middle;resizable=0;points=[];fontSize=16;" parent="5BiHEe_unOmntPOv5Vft-258" vertex="1" connectable="0">
          <mxGeometry x="0.7591" relative="1" as="geometry">
            <mxPoint x="12" y="-4" as="offset" />
          </mxGeometry>
        </mxCell>
        <mxCell id="5BiHEe_unOmntPOv5Vft-262" value="" style="endArrow=diamondThin;endFill=0;endSize=24;html=1;rounded=0;fontSize=12;exitX=1.029;exitY=-0.154;exitDx=0;exitDy=0;entryX=0;entryY=0.5;entryDx=0;entryDy=0;edgeStyle=orthogonalEdgeStyle;exitPerimeter=0;" parent="1" source="5BiHEe_unOmntPOv5Vft-89" target="5BiHEe_unOmntPOv5Vft-39" edge="1">
          <mxGeometry width="160" relative="1" as="geometry">
            <mxPoint x="1195" y="-995" as="sourcePoint" />
            <mxPoint x="870" y="-690" as="targetPoint" />
          </mxGeometry>
        </mxCell>
        <mxCell id="5BiHEe_unOmntPOv5Vft-263" value="Managed by" style="edgeLabel;html=1;align=center;verticalAlign=middle;resizable=0;points=[];fontSize=16;" parent="5BiHEe_unOmntPOv5Vft-262" vertex="1" connectable="0">
          <mxGeometry x="-0.4189" y="2" relative="1" as="geometry">
            <mxPoint x="3" y="-126" as="offset" />
          </mxGeometry>
        </mxCell>
        <mxCell id="5BiHEe_unOmntPOv5Vft-264" value="1" style="edgeLabel;html=1;align=center;verticalAlign=middle;resizable=0;points=[];fontSize=16;" parent="5BiHEe_unOmntPOv5Vft-262" vertex="1" connectable="0">
          <mxGeometry x="-0.8748" y="-2" relative="1" as="geometry">
            <mxPoint x="-1" y="-2" as="offset" />
          </mxGeometry>
        </mxCell>
        <mxCell id="5BiHEe_unOmntPOv5Vft-265" value="1" style="edgeLabel;html=1;align=center;verticalAlign=middle;resizable=0;points=[];fontSize=16;" parent="5BiHEe_unOmntPOv5Vft-262" vertex="1" connectable="0">
          <mxGeometry x="0.7591" relative="1" as="geometry">
            <mxPoint y="-3" as="offset" />
          </mxGeometry>
        </mxCell>
        <mxCell id="5BiHEe_unOmntPOv5Vft-266" value="" style="endArrow=diamondThin;endFill=0;endSize=24;html=1;rounded=0;fontSize=12;exitX=0;exitY=0.5;exitDx=0;exitDy=0;entryX=1;entryY=0.5;entryDx=0;entryDy=0;edgeStyle=orthogonalEdgeStyle;" parent="1" source="5BiHEe_unOmntPOv5Vft-148" target="5BiHEe_unOmntPOv5Vft-91" edge="1">
          <mxGeometry width="160" relative="1" as="geometry">
            <mxPoint x="1540" y="-868" as="sourcePoint" />
            <mxPoint x="1390" y="-700" as="targetPoint" />
            <Array as="points">
              <mxPoint x="1440" y="-925" />
              <mxPoint x="1440" y="-733" />
            </Array>
          </mxGeometry>
        </mxCell>
        <mxCell id="5BiHEe_unOmntPOv5Vft-267" value="Participate" style="edgeLabel;html=1;align=center;verticalAlign=middle;resizable=0;points=[];fontSize=16;" parent="5BiHEe_unOmntPOv5Vft-266" vertex="1" connectable="0">
          <mxGeometry x="-0.4189" y="2" relative="1" as="geometry">
            <mxPoint x="3" y="67" as="offset" />
          </mxGeometry>
        </mxCell>
        <mxCell id="5BiHEe_unOmntPOv5Vft-268" value="*" style="edgeLabel;html=1;align=center;verticalAlign=middle;resizable=0;points=[];fontSize=16;" parent="5BiHEe_unOmntPOv5Vft-266" vertex="1" connectable="0">
          <mxGeometry x="-0.8748" y="-2" relative="1" as="geometry">
            <mxPoint x="-17" y="-1" as="offset" />
          </mxGeometry>
        </mxCell>
        <mxCell id="5BiHEe_unOmntPOv5Vft-269" value="*" style="edgeLabel;html=1;align=center;verticalAlign=middle;resizable=0;points=[];fontSize=16;" parent="5BiHEe_unOmntPOv5Vft-266" vertex="1" connectable="0">
          <mxGeometry x="0.7591" relative="1" as="geometry">
            <mxPoint x="-11" y="-3" as="offset" />
          </mxGeometry>
        </mxCell>
        <mxCell id="5BiHEe_unOmntPOv5Vft-270" value="" style="endArrow=diamondThin;endFill=1;endSize=24;html=1;rounded=0;fontSize=12;entryX=1;entryY=0.5;entryDx=0;entryDy=0;exitX=0;exitY=0.5;exitDx=0;exitDy=0;edgeStyle=orthogonalEdgeStyle;" parent="1" source="5BiHEe_unOmntPOv5Vft-106" target="5BiHEe_unOmntPOv5Vft-97" edge="1">
          <mxGeometry width="160" relative="1" as="geometry">
            <mxPoint x="1515" y="-680" as="sourcePoint" />
            <mxPoint x="1355" y="-680" as="targetPoint" />
          </mxGeometry>
        </mxCell>
        <mxCell id="5BiHEe_unOmntPOv5Vft-271" value="1..*" style="edgeLabel;html=1;align=center;verticalAlign=middle;resizable=0;points=[];fontSize=16;" parent="5BiHEe_unOmntPOv5Vft-270" vertex="1" connectable="0">
          <mxGeometry x="-0.6199" relative="1" as="geometry">
            <mxPoint x="40" y="-2" as="offset" />
          </mxGeometry>
        </mxCell>
        <mxCell id="5BiHEe_unOmntPOv5Vft-272" value="1" style="edgeLabel;html=1;align=center;verticalAlign=middle;resizable=0;points=[];fontSize=16;" parent="5BiHEe_unOmntPOv5Vft-270" vertex="1" connectable="0">
          <mxGeometry x="0.5" y="1" relative="1" as="geometry">
            <mxPoint x="-52" y="-2" as="offset" />
          </mxGeometry>
        </mxCell>
        <mxCell id="5BiHEe_unOmntPOv5Vft-274" value="" style="endArrow=diamondThin;endFill=0;endSize=24;html=1;rounded=0;fontSize=12;exitX=0.001;exitY=-0.143;exitDx=0;exitDy=0;entryX=1.01;entryY=-0.108;entryDx=0;entryDy=0;edgeStyle=orthogonalEdgeStyle;entryPerimeter=0;exitPerimeter=0;" parent="1" source="5BiHEe_unOmntPOv5Vft-131" target="5BiHEe_unOmntPOv5Vft-157" edge="1">
          <mxGeometry width="160" relative="1" as="geometry">
            <mxPoint x="2075" y="-780" as="sourcePoint" />
            <mxPoint x="1920" y="-724" as="targetPoint" />
          </mxGeometry>
        </mxCell>
        <mxCell id="5BiHEe_unOmntPOv5Vft-275" value="Send" style="edgeLabel;html=1;align=center;verticalAlign=middle;resizable=0;points=[];fontSize=16;" parent="5BiHEe_unOmntPOv5Vft-274" vertex="1" connectable="0">
          <mxGeometry x="-0.4189" y="2" relative="1" as="geometry">
            <mxPoint x="-9" y="-124" as="offset" />
          </mxGeometry>
        </mxCell>
        <mxCell id="5BiHEe_unOmntPOv5Vft-276" value="*" style="edgeLabel;html=1;align=center;verticalAlign=middle;resizable=0;points=[];fontSize=16;" parent="5BiHEe_unOmntPOv5Vft-274" vertex="1" connectable="0">
          <mxGeometry x="-0.8748" y="-2" relative="1" as="geometry">
            <mxPoint x="2" y="-2" as="offset" />
          </mxGeometry>
        </mxCell>
        <mxCell id="5BiHEe_unOmntPOv5Vft-277" value="*" style="edgeLabel;html=1;align=center;verticalAlign=middle;resizable=0;points=[];fontSize=16;" parent="5BiHEe_unOmntPOv5Vft-274" vertex="1" connectable="0">
          <mxGeometry x="0.7591" relative="1" as="geometry">
            <mxPoint x="-18" y="-5" as="offset" />
          </mxGeometry>
        </mxCell>
        <mxCell id="5BiHEe_unOmntPOv5Vft-299" value="" style="endArrow=diamondThin;endFill=0;endSize=24;html=1;rounded=0;fontSize=12;exitX=0.5;exitY=0;exitDx=0;exitDy=0;edgeStyle=elbowEdgeStyle;entryX=1.026;entryY=-0.064;entryDx=0;entryDy=0;entryPerimeter=0;" parent="1" source="5BiHEe_unOmntPOv5Vft-219" target="5BiHEe_unOmntPOv5Vft-199" edge="1">
          <mxGeometry width="160" relative="1" as="geometry">
            <mxPoint x="2040" y="-1700" as="sourcePoint" />
            <mxPoint x="2179" y="-1860" as="targetPoint" />
            <Array as="points">
              <mxPoint x="2110" y="-1770" />
            </Array>
          </mxGeometry>
        </mxCell>
        <mxCell id="5BiHEe_unOmntPOv5Vft-300" value="1..*" style="edgeLabel;html=1;align=center;verticalAlign=middle;resizable=0;points=[];fontSize=16;" parent="5BiHEe_unOmntPOv5Vft-299" vertex="1" connectable="0">
          <mxGeometry x="-0.7394" y="3" relative="1" as="geometry">
            <mxPoint x="-1" y="10" as="offset" />
          </mxGeometry>
        </mxCell>
        <mxCell id="5BiHEe_unOmntPOv5Vft-301" value="Update" style="edgeLabel;html=1;align=center;verticalAlign=middle;resizable=0;points=[];fontSize=16;" parent="5BiHEe_unOmntPOv5Vft-299" vertex="1" connectable="0">
          <mxGeometry x="0.0717" y="4" relative="1" as="geometry">
            <mxPoint as="offset" />
          </mxGeometry>
        </mxCell>
      </root>
    </mxGraphModel>
  </diagram>
</mxfile>
